<?xml version="1.0" encoding="iso-8859-1"?>
<!-- Uploaded to: SVG Repo, www.svgrepo.com, Generator: SVG Repo Mixer Tools -->
<!DOCTYPE svg PUBLIC "-//W3C//DTD SVG 1.1//EN" "http://www.w3.org/Graphics/SVG/1.1/DTD/svg11.dtd">
<svg fill="white" version="1.1" id="Capa_1" xmlns="http://www.w3.org/2000/svg" xmlns:xlink="http://www.w3.org/1999/xlink" 
	 width="800px" height="800px" viewBox="0 0 322.121 322.121"
	 xml:space="preserve">
<g>
	<g>
		<path d="M42.419,96.106h82.187c3.006,0,7.397-2.571,8.997-5.403l16.762-27.737H42.419C18.994,62.966,0,81.959,0,105.385v14.035
			C8.961,105.427,24.604,96.106,42.419,96.106z"/>
		<path d="M279.702,45.733h-99.421c-5.861,0-12.935,4.137-15.804,9.243l-4.828,7.989l-19.242,31.851
			c-2.869,5.106-9.942,9.243-15.801,9.243H42.419C18.994,104.06,0,123.053,0,146.479v78.211v9.279
			c0,23.426,18.994,42.419,42.419,42.419h237.283c23.426,0,42.419-18.993,42.419-42.419v-9.279V105.385V88.152
			C322.121,64.727,303.128,45.733,279.702,45.733z M85.522,143.377c0-3.345,2.716-6.061,6.061-6.061h15.325
			c19.936,0.722,32.78,15.653,45.187,30.703c-3.304,4.262-6.543,8.596-9.725,12.889c-1.204,1.631-2.397,3.216-3.586,4.811
			c-4.894-6.364-9.67-12.2-14.289-16.73c-7.306-7.317-13.574-10.447-17.582-10.287H91.588c-3.345,0-6.061-2.716-6.061-6.061v-9.264
			H85.522z M85.506,228.92c0-3.346,2.716-6.059,6.061-6.059h9.264c3.345,0,8.865,0.083,11.876-1.383
			c6.222-3.029,14.61-10.734,22.976-21.665c11.581-14.483,23.31-32.705,36.729-46.054c8.099-7.917,17.388-14.815,29.018-16.156
			v-10.107c0-3.346,2.352-4.702,5.251-3.027l35.672,20.593c2.9,1.675,2.9,4.386,0,6.061l-35.672,20.593
			c-2.899,1.678-5.251,0.321-5.251-3.024v-9.429c-6.348,2.061-15.762,10.154-25.196,22.468
			c-11.568,14.494-23.312,32.715-36.715,46.06c-8.925,8.715-19.276,16.28-32.625,16.45H91.567c-3.345,0-6.061-2.713-6.061-6.058
			V228.92z M159.836,213.535c3.329-4.298,6.609-8.668,9.8-12.997c1.17-1.595,2.34-3.138,3.5-4.701
			c4.898,6.369,9.673,12.21,14.302,16.735c5.401,5.406,10.222,8.513,13.991,9.704v-9.217c0-3.351,2.352-4.707,5.251-3.035
			l35.672,20.583c2.9,1.673,2.9,4.386,0,6.059L206.68,257.26c-2.899,1.672-5.251,0.315-5.251-3.034v-10.439
			C183.544,241.503,171.458,227.661,159.836,213.535z"/>
	</g>
</g>
</svg>