<svg width="36" height="47" viewBox="0 0 36 47" fill="none" xmlns="http://www.w3.org/2000/svg">
<path id="Vector" d="M17.7804 4.6326C22.5781 4.6326 26.5034 8.55794 26.5034 13.3556C26.5034 17.9351 21.9238 25.3497 17.7804 30.5834C13.637 25.1316 9.05744 17.9351 9.05744 13.3556C9.05744 8.55794 12.9828 4.6326 17.7804 4.6326ZM17.7804 0.271118C10.584 0.271118 4.69596 6.15912 4.69596 13.3556C4.69596 23.1689 17.7804 37.3438 17.7804 37.3438C17.7804 37.3438 30.8649 22.9508 30.8649 13.3556C30.8649 6.15912 24.9769 0.271118 17.7804 0.271118ZM17.7804 8.99409C15.3816 8.99409 13.4189 10.9568 13.4189 13.3556C13.4189 15.7544 15.3816 17.7171 17.7804 17.7171C20.1792 17.7171 22.1419 15.7544 22.1419 13.3556C22.1419 10.9568 20.1792 8.99409 17.7804 8.99409ZM35.2264 37.3438C35.2264 42.1414 27.3757 46.0667 17.7804 46.0667C8.18515 46.0667 0.334473 42.1414 0.334473 37.3438C0.334473 34.5088 2.95136 32.11 7.09478 30.3654L8.40322 32.328C6.22248 33.4184 4.69596 34.7269 4.69596 36.2534C4.69596 39.3064 10.584 41.7052 17.7804 41.7052C24.9769 41.7052 30.8649 39.3064 30.8649 36.2534C30.8649 34.7269 29.3384 33.4184 26.9395 32.328L28.248 30.3654C32.6095 32.11 35.2264 34.5088 35.2264 37.3438Z" fill="white"/>
</svg>
